<?xml version="1.0" encoding="UTF-8"?>
<svg fill="none" viewBox="0 0 242 46" xmlns="http://www.w3.org/2000/svg">
<g clip-path="url(#c)">
<mask id="b" x="5" y="8" width="25" height="23" style="mask-type:alpha" maskUnits="userSpaceOnUse">
<path d="m29.386 8.5185h-24.2v22.148h24.2v-22.148z" fill="#D9D9D9"/>
</mask>
<g mask="url(#b)">
<path d="m11.502 20.336c-1.1304 2.1865-1.1304 5.0491-1.1304 10.774v16.015h31.806c5.8085 0 8.7128 0 10.931-1.1142 1.9515-0.9799 3.5382-2.5438 4.5325-4.4673 1.1305-2.1865 1.1305-5.0491 1.1305-10.774v-16.015h-31.806c-5.8085 0-8.7128 0-10.931 1.1142-1.9516 0.98-3.5382 2.5438-4.5325 4.4673zm8.2661 4.9542c-0.7537 1.4578-0.7537 3.3662-0.7537 7.1828v7.837h20.051c3.8724 0 5.8086 0 7.2877-0.7428 1.3009-0.6534 2.3586-1.6959 3.0215-2.9781 0.7537-1.4578 0.7537-3.3661 0.7537-7.1828v-7.837h-20.051c-3.8724 0-5.8085 0-7.2877 0.7428-1.3009 0.6534-2.3586 1.6959-3.0215 2.9781z" clip-rule="evenodd" fill="#F8F8F8" fill-rule="evenodd"/>
</g>
<mask id="a" x="0" y="27" width="20" height="19" style="mask-type:alpha" maskUnits="userSpaceOnUse">
<path d="M19.0143 27.2593H0V46H19.0143V27.2593Z" fill="#D9D9D9"/>
</mask>
<g mask="url(#a)">
<path d="m-28.255 17.507c-1.1304 2.1866-1.1304 5.0491-1.1304 10.774v16.015h31.806c5.8085 0 8.7128 0 10.931-1.1142 1.9516-0.98 3.5382-2.5438 4.5325-4.4673 1.1305-2.1865 1.1305-5.0491 1.1305-10.774v-16.015h-31.806c-5.8085 0-8.7128 0-10.931 1.1142-1.9515 0.98-3.5382 2.5438-4.5325 4.4673zm8.2661 4.9542c-0.7537 1.4579-0.7537 3.3662-0.7537 7.1828v7.8371h20.051c3.8724 0 5.8085 0 7.2876-0.7428 1.301-0.6534 2.3588-1.6959 3.0217-2.9781 0.75361-1.4579 0.75361-3.3662 0.75361-7.1828v-7.8371h-20.051c-3.8724 0-5.8086 0-7.2876 0.7429-1.301 0.6533-2.3587 1.6958-3.0216 2.978z" clip-rule="evenodd" fill="#F8F8F8" fill-rule="evenodd"/>
</g>
<path d="m48.584 33.474c0 1.9897 0.9685 2.9845 2.9057 2.9845 1.4273 0 3.1605-0.3516 5.1997-1.0551v7.7175c-1.3254 0.5828-2.6711 1.0149-4.0374 1.2963-1.3459 0.2813-2.9159 0.422-4.7104 0.422-3.5684 0-6.1682-0.8641-7.7994-2.5925-1.6109-1.7284-2.4164-4.4214-2.4164-8.0793v-12.661h-3.7621v-4.3111l4.7714-3.3462 2.7833-6.4513h7.0656v6.1499h7.6467v7.9587h-7.6467v11.968zm43.891 10.823h-8.1053l-1.3459-3.8286h-0.6423c-0.8971 1.4068-2.1614 2.492-3.7927 3.2558-1.6108 0.7437-3.4868 1.1154-5.6278 1.1154-3.4257 0-6.0971-0.9847-8.0137-2.9544-1.8964-1.9694-2.8445-4.7329-2.8445-8.2902v-20.047h10.766v16.792c0 2.0499 0.2854 3.5873 0.8563 4.6125 0.5914 1.0048 1.5396 1.5072 2.8445 1.5072 1.8557 0 3.1709-0.7135 3.9457-2.1403 0.7953-1.4471 1.1929-3.8788 1.1929-7.2955v-13.475h10.766v30.749zm17.536-31.292c1.753 0 3.283 0.3516 4.588 1.0551 1.325 0.7033 2.518 1.8589 3.578 3.4668h0.214c-0.346-2.4921-0.52-4.9039-0.52-7.2352v-8.1998h10.858v42.205h-8.135l-2.294-3.8889h-0.429c-1.855 2.9544-4.618 4.4315-8.289 4.4315-3.323 0.0804-6.005-1.3265-8.044-4.2204-2.0186-2.8941-3.0279-6.8131-3.0279-11.757 0.0204-4.944 1.0501-8.8228 3.0889-11.636 2.06-2.8137 4.864-4.2204 8.412-4.2204zm3.884 8.5614c-1.427 0-2.528 0.6532-3.303 1.9596s-1.163 3.1653-1.163 5.5771 0.388 4.2405 1.163 5.4866c0.795 1.2461 1.978 1.8691 3.548 1.8691 1.59 0 2.742-0.5124 3.456-1.5374 0.734-1.045 1.132-2.7133 1.193-5.0043v-0.8442c0-2.6729-0.398-4.5923-1.193-5.758-0.775-1.1656-2.008-1.7485-3.701-1.7485zm33.036-8.0188v30.749h-10.766v-30.749h10.766zm0.429-7.6271c0 3.0951-1.917 4.6426-5.751 4.6426-3.813 0-5.719-1.5475-5.719-4.6426 0-1.6279 0.448-2.8237 1.345-3.5873 0.918-0.76378 2.366-1.1456 4.344-1.1456 1.998 0 3.456 0.39191 4.374 1.1758 0.938 0.7837 1.407 1.9695 1.407 3.5572zm37.402 38.376h-8.107l-1.345-3.8286h-0.643c-0.897 1.4068-2.161 2.492-3.792 3.2558-1.611 0.7437-3.487 1.1154-5.628 1.1154-3.426 0-6.097-0.9847-8.014-2.9544-1.896-1.9694-2.844-4.7329-2.844-8.2902v-20.047h10.766v16.792c0 2.0499 0.286 3.5873 0.856 4.6125 0.592 1.0048 1.54 1.5072 2.845 1.5072 1.856 0 3.171-0.7135 3.946-2.1403 0.795-1.4471 1.193-3.8788 1.193-7.2955v-13.475h10.767v30.749zm56.471 0h-10.766v-16.701c0-2.1304-0.285-3.698-0.857-4.7029-0.571-1.0249-1.489-1.5374-2.752-1.5374-1.653 0-2.865 0.6934-3.641 2.0801-0.753 1.3868-1.13 3.5673-1.13 6.5417v14.32h-10.799v-16.701c0-2.1103-0.285-3.6779-0.855-4.7029-0.552-1.0249-1.428-1.5374-2.631-1.5374-1.713 0-2.956 0.7435-3.732 2.2308-0.754 1.4872-1.131 3.909-1.131 7.2653v13.445h-10.767v-30.749h8.137l1.346 3.7984h0.641c0.796-1.3868 1.978-2.452 3.549-3.1955 1.57-0.7637 3.364-1.1455 5.383-1.1455 4.506 0 7.666 1.3464 9.481 4.0395h0.858c0.876-1.2661 2.1-2.251 3.669-2.9543 1.57-0.7235 3.304-1.0852 5.2-1.0852 3.651 0 6.363 0.9345 8.136 2.8036 1.774 1.8488 2.661 4.6826 2.661 8.5013v19.987z" fill="#F8F8F8"/>
</g>
<defs>
<clipPath id="c">
<rect width="242" height="46" fill="#fff"/>
</clipPath>
</defs>
</svg>
