<?xml version="1.0" encoding="UTF-8"?>
<svg fill="none" viewBox="0 0 158 30" xmlns="http://www.w3.org/2000/svg">
<g clip-path="url(#c)">
<mask id="b" x="3" y="5" width="17" height="15" style="mask-type:alpha" maskUnits="userSpaceOnUse">
<path d="m19.186 5.5555h-15.8v14.444h15.8v-14.444z" fill="#D9D9D9"/>
</mask>
<g mask="url(#b)">
<path d="m7.5095 13.262c-0.73805 1.426-0.73805 3.2929-0.73805 7.0266v10.444h20.766c3.7923 0 5.6886 0 7.137-0.7266 1.2741-0.6391 2.31-1.659 2.9592-2.9135 0.7381-1.426 0.7381-3.2929 0.7381-7.0265v-10.444h-20.766c-3.7924 0-5.6886 0-7.137 0.72668-1.2742 0.6391-2.3101 1.659-2.9593 2.9134zm5.3969 3.231c-0.4921 0.9508-0.4921 2.1954-0.4921 4.6845v5.1111h13.092c2.5282 0 3.7923 0 4.758-0.4845 0.8494-0.4261 1.54-1.106 1.9728-1.9422 0.492-0.9508 0.492-2.1953 0.492-4.6844v-5.1111h-13.091c-2.5282 0-3.7923 0-4.7581 0.4844-0.8493 0.4261-1.5399 1.106-1.9727 1.9422z" clip-rule="evenodd" fill="#50BF4D" fill-rule="evenodd"/>
</g>
<mask id="a" x="0" y="17" width="13" height="13" style="mask-type:alpha" maskUnits="userSpaceOnUse">
<path d="M12.4143 17.7778H0V30H12.4143V17.7778Z" fill="#D9D9D9"/>
</mask>
<g mask="url(#a)">
<path d="m-18.448 11.418c-0.7381 1.426-0.7381 3.2929-0.7381 7.0265v10.444h20.766c3.7924 0 5.6885 0 7.137-0.7267 1.2741-0.6391 2.3101-1.659 2.9592-2.9134 0.7381-1.426 0.7381-3.2929 0.7381-7.0266v-10.444h-20.766c-3.7923 0-5.6886 0-7.137 0.72667-1.2741 0.63911-2.3101 1.659-2.9592 2.9135zm5.3968 3.231c-0.492 0.9508-0.492 2.1953-0.492 4.6844v5.1111h13.091c2.5282 0 3.7924 0 4.758-0.4844 0.84942-0.4261 1.54-1.106 1.9728-1.9422 0.49202-0.9508 0.49202-2.1954 0.49202-4.6845v-5.1111h-13.091c-2.5282 0-3.7923 0-4.758 0.4845-0.8494 0.4261-1.54 1.106-1.9728 1.9422z" clip-rule="evenodd" fill="#50BF4D" fill-rule="evenodd"/>
</g>
<path d="m31.72 21.831c0 1.2976 0.6323 1.9464 1.8971 1.9464 0.9319 0 2.0635-0.2293 3.3949-0.6881v5.0331c-0.8654 0.3801-1.744 0.6619-2.636 0.8455-0.8787 0.1834-1.9038 0.2752-3.0754 0.2752-2.3298 0-4.0272-0.5636-5.0922-1.6908-1.0517-1.1272-1.5777-2.8835-1.5777-5.2691v-8.2574h-2.4562v-2.8116l3.1152-2.1823 1.8172-4.2073h4.6131v4.0108h4.9924v5.1905h-4.9924v7.8052zm28.656 7.0582h-5.2919l-0.8787-2.4969h-0.4193c-0.5858 0.9175-1.4112 1.6252-2.4762 2.1233-1.0518 0.485-2.2766 0.7275-3.6744 0.7275-2.2367 0-3.9807-0.6422-5.2321-1.9268-1.2382-1.2844-1.8572-3.0867-1.8572-5.4067v-13.074h7.0293v10.951c0 1.3369 0.1864 2.3396 0.5591 3.0081 0.3861 0.6554 1.0052 0.983 1.8572 0.983 1.2115 0 2.0703-0.4653 2.5761-1.3959 0.5192-0.9437 0.7788-2.5296 0.7788-4.7579v-8.7883h7.0293v20.054zm11.449-20.408c1.145 0 2.1434 0.22934 2.9955 0.68811 0.8654 0.45867 1.6442 1.2124 2.3365 2.261h0.1397c-0.2263-1.6253-0.3395-3.1982-0.3395-4.7186v-5.3477h7.0892v27.525h-5.3118l-1.4977-2.5362h-0.2797c-1.2114 1.9268-3.0154 2.8901-5.4117 2.8901-2.17 0.0524-3.9208-0.8651-5.252-2.7525-1.3181-1.8874-1.9771-4.4433-1.9771-7.6677 0.0133-3.2244 0.6856-5.754 2.017-7.589 1.3446-1.835 3.1751-2.7525 5.4916-2.7525zm2.5362 5.5836c-0.9319 0-1.6508 0.426-2.1567 1.278-0.506 0.852-0.7589 2.0643-0.7589 3.6372s0.2529 2.7656 0.7589 3.5782c0.5192 0.8127 1.2914 1.219 2.3165 1.219 1.0384 0 1.7906-0.3342 2.2565-1.0026 0.4793-0.6816 0.7389-1.7696 0.7789-3.2637v-0.5506c0-1.7432-0.2597-2.995-0.7789-3.7552-0.5059-0.7602-1.3114-1.1403-2.4163-1.1403zm21.569-5.2297v20.054h-7.0293v-20.054h7.0293zm0.2797-4.9742c0 2.0186-1.2515 3.0278-3.7543 3.0278-2.4897 0-3.7344-1.0092-3.7344-3.0278 0-1.0617 0.2929-1.8416 0.8786-2.3396 0.5992-0.49812 1.5443-0.74715 2.8358-0.74715 1.3046 0 2.2566 0.25559 2.8556 0.76682 0.6124 0.51111 0.9187 1.2844 0.9187 2.3199zm24.42 25.028h-5.293l-0.878-2.4969h-0.42c-0.586 0.9175-1.411 1.6252-2.476 2.1233-1.052 0.485-2.277 0.7275-3.675 0.7275-2.236 0-3.98-0.6422-5.232-1.9268-1.238-1.2844-1.857-3.0867-1.857-5.4067v-13.074h7.029v10.951c0 1.3369 0.187 2.3396 0.56 3.0081 0.386 0.6554 1.005 0.983 1.857 0.983 1.211 0 2.07-0.4653 2.576-1.3959 0.519-0.9437 0.779-2.5296 0.779-4.7579v-8.7883h7.03v20.054zm36.869 0h-7.029v-10.892c0-1.3894-0.186-2.4118-0.56-3.0671-0.372-0.6685-0.971-1.0027-1.796-1.0027-1.079 0-1.87 0.4522-2.377 1.3566-0.492 0.9044-0.738 2.3265-0.738 4.2663v9.3389h-7.05v-10.892c0-1.3763-0.187-2.3987-0.559-3.0671-0.36-0.6685-0.932-1.0027-1.718-1.0027-1.118 0-1.93 0.4849-2.436 1.4549-0.492 0.9699-0.738 2.5493-0.738 4.7382v8.7687h-7.03v-20.054h5.312l0.879 2.4772h0.419c0.519-0.9044 1.291-1.5991 2.317-2.084 1.024-0.49812 2.196-0.74712 3.514-0.74712 2.942 0 5.005 0.87811 6.19 2.6345h0.56c0.572-0.8257 1.371-1.468 2.396-1.9267 1.025-0.47189 2.157-0.70778 3.395-0.70778 2.383 0 4.154 0.60945 5.312 1.8285 1.158 1.2057 1.737 3.0539 1.737 5.5443v13.035z" fill="#50BF4D"/>
</g>
<defs>
<clipPath id="c">
<rect width="158" height="30" fill="#fff"/>
</clipPath>
</defs>
</svg>
