<?xml version="1.0" encoding="UTF-8"?>
<svg fill="none" viewBox="0 0 39 49" xmlns="http://www.w3.org/2000/svg">
<mask id="b" x="7" y="0" width="32" height="29" style="mask-type:alpha" maskUnits="userSpaceOnUse">
<path d="m38.677 0.11108h-31.565v28.889h31.565v-28.889z" fill="#D9D9D9"/>
</mask>
<g mask="url(#b)">
<path d="m15.35 15.525c-1.4745 2.852-1.4745 6.5858-1.4745 14.053v20.889h41.486c7.5764 0 11.365 0 14.258-1.4533 2.5455-1.2782 4.615-3.318 5.9119-5.8269 1.4746-2.852 1.4745-6.5858 1.4745-14.053v-20.889h-41.486c-7.5763 0-11.365 0-14.258 1.4533-2.5455 1.2782-4.615 3.318-5.9119 5.8269zm10.782 6.462c-0.983 1.9016-0.983 4.3907-0.983 9.3689v10.222h26.154c5.0509 0 7.5764 0 9.5057-0.9689 1.6968-0.8522 3.0765-2.212 3.9411-3.8844 0.9831-1.9016 0.9831-4.3907 0.9831-9.3689v-10.222h-26.154c-5.0509 0-7.5763 0-9.5056 0.9689-1.6969 0.8522-3.0765 2.212-3.9412 3.8844z" clip-rule="evenodd" fill="#50BF4D" fill-rule="evenodd"/>
</g>
<mask id="a" x="0" y="24" width="26" height="25" style="mask-type:alpha" maskUnits="userSpaceOnUse">
<path d="m25.149 24.555h-24.801v24.444h24.801v-24.444z" fill="#D9D9D9"/>
</mask>
<g mask="url(#a)">
<path d="m-36.507 11.836c-1.4745 2.852-1.4745 6.5858-1.4745 14.053v20.889h41.486c7.5763 0 11.365 0 14.258-1.4533 2.5454-1.2782 4.615-3.318 5.9118-5.8269 1.4746-2.852 1.4746-6.5858 1.4746-14.053v-20.889h-41.486c-7.5764 0-11.365 0-14.258 1.4533-2.5455 1.2782-4.615 3.318-5.9119 5.8268zm10.782 6.462c-0.9831 1.9016-0.9831 4.3907-0.9831 9.3689v10.222h26.154c5.0509 0 7.5764-1e-4 9.5056-0.9689 1.697-0.8523 3.0767-2.212 3.9413-3.8845 0.983-1.9015 0.983-4.3906 0.983-9.3689v-10.222h-26.154c-5.0509 0-7.5764 0-9.5056 0.9689-1.6969 0.8522-3.0766 2.212-3.9412 3.8844z" clip-rule="evenodd" fill="#50BF4D" fill-rule="evenodd"/>
</g>
</svg>
